<svg width="340" height="170" viewBox="0 0 340 170" fill="none" xmlns="http://www.w3.org/2000/svg">
<path d="M233.661 59.2651L249.096 57.592" stroke="black" stroke-linecap="round"/>
<path d="M182.744 31.0332L181.071 15.5981L191.527 14.4647L191.905 17.9501L185.432 18.6517L186.998 33.0909" stroke="black" stroke-linecap="round"/>
<path d="M166.895 42.8262L192.786 40.0196" stroke="black" stroke-linecap="round"/>
<path d="M165.49 71.6918L166.084 77.1687L192.257 72.3166C189.534 56.4927 195.629 52.3055 197.734 71.7229L203.211 71.1292L202.401 63.6606" stroke="black" stroke-linecap="round"/>
<path d="M97.2864 158.175C100.415 166.276 114.429 164.238 142.086 157.852C185.925 144.032 259.17 123.236 272.85 109.422" stroke="black" stroke-linecap="round"/>
<path d="M290.433 99.6838C261.878 120.026 188.954 135.298 97.3381 158.672C48.8107 171.053 30.9169 117.511 78.6837 102.762C81.4724 95.4352 94.5655 91.8364 121.15 85.5651C124.469 80.7005 130.463 78.5105 165.046 72.243C164.667 58.6242 162.833 47.8589 166.895 42.8248C165.384 28.8847 189.835 26.7382 192.288 40.0723C199.801 41.277 200.135 49.6331 202.401 63.6611L233.661 59.2651C235.611 54.0162 247.561 52.7209 249.042 57.094C253.439 56.3689 255.234 56.7026 257.722 58.1681C265.702 57.449 269.746 57.746 275.971 59.2126L282.941 58.4569C283.969 41.3136 284.006 31.2044 293.4 29.639C293.952 29.5471 294.448 29.9649 294.491 30.5227L296.979 62.4766L304.531 71.7331L331.117 72.6351C332.109 72.6688 332.975 73.4404 332.837 74.4239C331.95 80.7329 320.971 80.4692 303.454 80.4124C303.368 83.4265 302.49 86.3048 300.869 89.0723M290.433 99.6838C294.196 110.901 296.788 115.403 302.011 114.544C302.945 114.39 303.514 113.477 303.412 112.536L300.869 89.0723M290.433 99.6838C295.174 96.3065 298.692 92.7894 300.869 89.0723" stroke="black" stroke-linecap="round"/>
<path d="M78.6864 102.763C85.5545 119.65 278.598 69.5068 275.473 59.2667M121.153 85.5662C122.502 98.0138 267.058 65.2862 257.225 58.2223" stroke="black" stroke-linecap="round"/>
<path d="M282.497 59.0093C293.605 58.5523 298.146 61.9615 304.53 71.7335L289.029 77.4439L289.353 80.4313L303.954 80.3598" stroke="black" stroke-linecap="round"/>
<circle cx="114.702" cy="119.009" r="3.50656" transform="rotate(-6.18664 114.702 119.009)" stroke="black"/>
<circle cx="139.381" cy="114.319" r="3.50656" transform="rotate(-6.18664 139.381 114.319)" stroke="black"/>
<circle cx="165.836" cy="107.422" r="3.50656" transform="rotate(-6.18664 165.836 107.422)" stroke="black"/>
<circle cx="191.295" cy="100.632" r="3.50656" transform="rotate(-6.18664 191.295 100.632)" stroke="black"/>
<circle cx="214.872" cy="95.0539" r="3.50656" transform="rotate(-6.18664 214.872 95.0539)" stroke="black"/>
<circle cx="237.343" cy="88.5876" r="3.50656" transform="rotate(-6.18664 237.343 88.5876)" stroke="black"/>
<circle cx="255.832" cy="82.5534" r="3.50656" transform="rotate(-6.18664 255.832 82.5534)" stroke="black"/>
<circle cx="272.329" cy="76.735" r="3.50656" transform="rotate(-6.18664 272.329 76.735)" stroke="black"/>
<path d="M37.9688 16.8179C39.1235 14.8181 42.0093 14.8181 43.1641 16.8179L71.3682 65.6675C72.5228 67.6675 71.0789 70.1675 68.7695 70.1675H12.3633C10.0539 70.1675 8.61005 67.6675 9.76465 65.6675L37.9688 16.8179Z" fill="#EEE9E2" stroke="black" stroke-width="2"/>
<circle cx="40.5663" cy="60.4003" r="2.00328" fill="black"/>
<rect x="39.0645" y="31.3525" width="3.00492" height="22.0361" rx="1.50246" fill="black"/>
</svg>
