<svg width="212" height="158" viewBox="0 0 212 158" fill="none" xmlns="http://www.w3.org/2000/svg">
<path d="M1.0481 46.1041L49.0766 1.10742L210.048 43.3617M1.0481 46.1041V48.034L4.08148 48.933M1.0481 46.1041L171.726 96.2811M171.726 98.6172V96.2811M171.726 98.6172L210.048 45.5963M171.726 98.6172L169.502 100.039M171.726 98.6172L4.08148 48.933M171.726 96.2811L210.048 43.3617M210.048 43.3617V45.5963M210.048 45.5963L205.498 102.477L165.963 156.107M169.502 100.039L165.963 156.107M169.502 100.039L1.0481 51.6906M165.963 156.107L6.71041 104.813L1.0481 51.6906M1.0481 51.6906L4.08148 48.933M30.4719 30.7667C30.4719 32.9054 31.5427 35.7889 33.3031 36.5563C40.2798 39.5977 48.8744 38.1138 51.3011 36.5563C53.3328 34.935 55.548 33.2355 55.3456 30.7667M30.4719 30.7667C30.4719 30.0557 30.9775 29.4462 31.5841 28.7352C33.3031 26.9206 38.6418 22.8034 49.0766 25.0786C49.698 25.2141 50.2635 25.3828 50.7773 25.578M30.4719 30.7667V34.4233C30.4603 35.7776 32.1681 37.738 33.3031 38.4862C36.5387 40.6192 46.3466 41.0775 51.3011 38.9941C52.4447 38.5132 54.5367 37.6736 55.3456 34.8296V30.7667M55.3456 30.7667C55.2165 29.1909 54.1385 27.0267 51.2174 25.757M51.2174 25.757L46.5488 31.2745C46.1444 30.0557 44.7625 28.8706 44.1221 28.4305L50.7773 25.578M51.2174 25.757L51.7056 25.1802L50.7773 25.578M66.9736 16.8512C66.9736 18.99 68.0444 21.8734 69.8047 22.6408C76.7815 25.6823 85.3761 24.1983 87.8028 22.6408C89.659 21.1596 91.6683 19.6131 91.8473 17.4743M66.9736 16.8512C66.9736 16.1402 67.4792 15.5308 68.0858 14.8197C69.8047 13.0051 75.1435 8.88789 85.5783 11.1631C86.1997 11.2986 86.7652 11.4673 87.279 11.6626M66.9736 16.8512V20.5078C66.962 21.8621 68.6698 23.8225 69.8047 24.5707C73.0404 26.7038 82.8483 27.162 87.8028 25.0786C88.9464 24.5977 91.0384 23.7581 91.8473 20.9141V17.4743M91.8473 16.8512C91.8648 17.0645 91.8642 17.272 91.8473 17.4743M91.8473 16.8512V17.4743M91.8473 16.8512C91.7181 15.2754 90.6402 13.1112 87.7191 11.8416M87.7191 11.8416L83.0505 17.3591C82.6461 16.1402 81.2642 14.9552 80.6238 14.515L87.279 11.6626M87.7191 11.8416L88.2073 11.2647L87.279 11.6626M66.9736 40.7056C66.9736 42.8444 68.0444 45.7279 69.8047 46.4953C76.7815 49.5367 85.3761 48.0527 87.8028 46.4953C89.659 45.014 91.6683 43.4675 91.8473 41.3287M66.9736 40.7056C66.9736 39.9946 67.4792 39.3852 68.0858 38.6742C69.8047 36.8595 75.1435 32.7423 85.5783 35.0176C86.1997 35.153 86.7652 35.3217 87.279 35.517M66.9736 40.7056V44.3622C66.962 45.7165 68.6698 47.6769 69.8047 48.4252C73.0404 50.5582 82.8483 51.0164 87.8028 48.933C88.9464 48.4521 91.0384 47.6126 91.8473 44.7685V41.3287M91.8473 40.7056C91.8648 40.9189 91.8643 41.1265 91.8473 41.3287M91.8473 40.7056V41.3287M91.8473 40.7056C91.7182 39.1299 90.6402 36.9657 87.7191 35.696M87.7191 35.696L83.0505 41.2135C82.6461 39.9946 81.2642 38.8096 80.6238 38.3695L87.279 35.517M87.7191 35.696L88.2073 35.1191L87.279 35.517M178.057 121.674L178.804 110.501L197.308 87.4442L196.335 97.0937M178.057 121.674L177.186 134.676L194.982 110.501L196.335 97.0937M178.057 121.674L196.335 97.0937M126.023 45.0007L133.91 47.2214L126.023 56.4646L118.642 54.2571M126.023 45.0007L120.563 43.4633L112.778 52.5032L118.642 54.2571M126.023 45.0007L129.562 41.3287L139.573 44.1501M157.469 53.519L160.2 49.9639L147.055 46.259M157.469 53.519L150.998 51.3859L143.617 60.9338L148.673 62.4235M157.469 53.519L160.907 54.3338M160.907 54.3338L166.469 55.652L158.784 65.403L153.728 63.9132M160.907 54.3338L163.738 50.6749L175.569 53.519M153.728 63.9132L146.65 73.2241L152.717 74.9M153.728 63.9132L148.673 62.4235M158.784 76.576L152.717 74.9M152.717 74.9H155.043M152.717 74.9L153.728 76.576M148.673 62.4235L140.483 72.0052L129.562 68.958M129.562 68.958C130.102 68.3147 130.695 66.9062 128.753 66.4187M129.562 68.958C129.124 69.4997 127.864 70.4613 126.327 69.9737C124.79 69.4862 124.945 68.4163 125.215 67.9423C125.585 67.2313 126.812 65.9311 128.753 66.4187M128.753 66.4187L120.766 64.0825M118.642 54.2571L112.778 61.7463L120.766 64.0825M120.766 64.0825L122.484 63.9132M120.766 64.0825L121.372 65.0982M139.573 44.1501L138.966 43.4633M139.573 44.1501L138.561 44.5806M139.573 44.1501L147.055 46.259M147.055 46.259L149.482 43.1585M149.482 43.1585L141.089 40.9239L143.819 37.4705L160.907 41.6349L158.177 45.4947L149.482 43.1585ZM49.0766 79.9279L51.7056 116.596L108.531 134.676V97.3984L49.0766 79.9279ZM51.0989 96.7889L50.1889 81.553L107.621 98.211V113.955L51.0989 96.7889ZM118.743 20.9141L115.103 25.0786L197.308 45.901L200.847 41.3287L118.743 20.9141Z" stroke="white" stroke-width="2"/>
</svg>
