<svg width="368" height="217" viewBox="0 0 368 217" fill="none" xmlns="http://www.w3.org/2000/svg">
<path d="M58.7944 62.4267C52.1322 65.7578 55.2617 73.5335 57.1288 79.0817C58.7209 83.8124 61.5703 87.4094 65.4566 89.6301C67.5273 90.8134 66.5669 90.1853 73.2291 91.2957C79.8913 92.4061 73.2291 122.941 73.2291 122.941C16.0453 144.594 8.2728 186.787 0.500244 213.991M284.198 158.473C284.198 158.473 286.974 141.818 275.315 139.041C267.09 137.083 261.685 136.367 253.663 139.041C242.319 142.823 232.011 160.693 232.011 160.693C178.159 183.456 161.503 135.71 115.978 122.941C117.423 114.296 126.527 107.396 141.517 107.396C156.506 107.396 161.503 54.0985 151.51 24.1185C148.736 15.7964 137.075 8.57301 129.858 5.24244C105.304 -6.08809 74.5108 3.94138 63.2358 24.1185C60.72 28.6206 60.2469 34.1762 60.7737 39.6642" stroke="black" stroke-linecap="round"/>
<path d="M140.961 189.563C140.961 189.563 189.924 210.15 216.466 202.888C236.071 197.524 243.115 191.784 259.215 177.904C265.111 172.822 272.618 174.7 276.426 167.911C277.945 165.203 277.536 161.804 274.76 160.694C267.488 157.785 256.439 163.47 256.439 163.47" stroke="black" stroke-linecap="round"/>
<path d="M141.516 183.457C141.215 190.589 140.961 207.885 139.851 216.212" stroke="black" stroke-linecap="round"/>
<path d="M52.6873 215.102L58.7943 191.784" stroke="black" stroke-linecap="round"/>
<path d="M274.205 170.687C276.426 170.687 273.981 180.837 272.612 186.223C271.715 189.755 272.346 190.28 273.159 192.417C273.586 193.539 273.241 196.655 274.528 197.535C281.399 202.23 296.968 194.6 296.968 189.455C296.968 185.415 295.404 185.782 294.505 184.338C295.052 181.914 292.779 181.023 291.494 179.759C287.663 175.989 276.991 169.525 280.001 167.37C283.011 165.216 281.096 160.369 276.991 160.369C275.075 160.369 278.426 157.284 278.085 155.79C277.655 153.905 273.98 152.827 270.97 153.905C267.535 155.134 265.222 157.944 266.044 160.369" stroke="black" stroke-linecap="round"/>
<path d="M274.76 193.451C274.76 185.123 289.195 180.68 294.192 185.677" stroke="black" stroke-linecap="round"/>
<path d="M262.546 161.249L257.031 158.951C256.442 158.705 256.234 157.984 256.625 157.479C258.609 154.916 264.155 148.405 268.098 150.145C269.927 150.952 271.984 153.476 271.984 153.476" stroke="black" stroke-linecap="round"/>
<path d="M284.754 153.477C288.64 154.587 292.879 162.165 286.419 171.798" stroke="black" stroke-linecap="round"/>
<path d="M55.4624 41.3298C56.1278 39.1662 61.0142 39.6642 61.0142 39.6642C67.3622 41.9318 68.4613 42.912 74.3386 41.3298L72.673 68.5337L69.898 64.6473C65.5179 61.0808 63.0975 61.1741 58.7935 62.4267C58.7935 62.4267 53.2426 48.547 55.4624 41.3298Z" stroke="black" stroke-linecap="round"/>
<path d="M98.2122 57.9849C103.951 55.3157 107.281 54.7454 113.757 57.9849" stroke="black" stroke-linecap="round"/>
<path d="M134.854 55.7647C139.773 53.0954 142.628 52.5251 148.179 55.7647" stroke="black" stroke-linecap="round"/>
<path d="M152.065 42.9951C143.856 47.7149 139.529 47.0989 132.078 42.9951L135.409 69.0887" stroke="black" stroke-linecap="round"/>
<path d="M93.7708 48.5469C103.381 50.7269 108.417 49.8087 116.533 43.5503" stroke="black" stroke-linecap="round"/>
<path d="M107.095 64.6475C112.454 63.7642 115.04 62.7435 118.199 59.0957" stroke="black" stroke-linecap="round"/>
<path d="M135.965 59.0957C137.807 60.4988 138.971 61.0789 141.516 61.3164" stroke="black" stroke-linecap="round"/>
<path d="M113.754 90.7456C114.541 89.0186 121.208 89.1106 123.747 90.7456C126.439 92.4787 127.347 88.1602 130.413 89.0801C132.469 89.6968 132.751 91.1865 134.851 90.7456C135.912 90.523 135.988 89.0801 137.072 89.0801C138.156 89.0801 139.293 90.7456 139.293 90.7456" stroke="black" stroke-linecap="round"/>
<path d="M80.4521 69.6441C80.4521 69.6441 80.2252 75.0693 82.6728 76.3063C86.0522 78.0141 84.8935 66.8682 84.8935 66.8682" stroke="black" stroke-linecap="round"/>
<path d="M311.966 200.112C310.737 203.505 306.755 207.459 306.969 207.885C307.183 208.31 322.254 207.945 322.514 207.885C322.774 207.824 318.736 203.509 317.518 200.112C316.403 197.002 315.289 194.005 316.954 191.784C316.984 191.603 316.361 190.863 316.399 190.674C316.668 189.329 317.9 189.215 317.518 187.898C317.13 186.565 316.13 185.677 314.742 185.677C313.354 185.677 312.233 186.536 311.966 187.898C311.741 189.044 312.772 189.547 313.076 190.674C313.18 191.057 312.449 191.426 312.513 191.784C314.178 192.895 313.095 196.996 311.966 200.112Z" stroke="black" stroke-linecap="round"/>
<path d="M339.716 185.567C339.985 183.825 341.244 183.677 340.862 181.971C340.476 180.244 339.478 179.095 338.094 179.095C336.709 179.095 335.592 180.207 335.325 181.971C335.101 183.455 336.13 184.107 336.433 185.567C336.483 185.811 335.789 186.051 335.83 186.286C337.496 187.343 336.52 193.51 335.325 197.793C334.1 202.188 329.83 207.65 330.342 207.861C330.855 208.071 345.827 207.902 345.845 207.861C345.864 207.82 342.077 202.193 340.862 197.793C339.75 193.762 339.161 187.343 340.827 186.232M339.716 185.567C339.679 185.809 340.856 185.995 340.827 186.232M339.716 185.567L340.827 186.232" stroke="black" stroke-linecap="round"/>
<path d="M367.476 207.884L256.439 207.884L252.553 214.546H367.476" stroke="black" stroke-linecap="round"/>
<path d="M235.897 137.932V128.959C235.897 127.975 237.169 127.583 237.724 128.396L241.856 134.456C242.449 135.327 243.812 134.806 243.673 133.762L239.753 104.138C239.616 103.107 240.95 102.579 241.556 103.424L256.408 124.126C256.884 124.789 257.911 124.634 258.169 123.859L259.77 119.055" stroke="black" stroke-linecap="round"/>
</svg>
